<mxfile host="Electron" modified="2024-02-11T20:21:39.309Z" agent="Mozilla/5.0 (Windows NT 10.0; Win64; x64) AppleWebKit/537.36 (KHTML, like Gecko) draw.io/21.6.5 Chrome/114.0.5735.243 Electron/25.3.1 Safari/537.36" etag="eel9QpHdzZaewpM7LOYn" version="21.6.5" type="device" pages="4">
  <diagram name="bd_modport" id="wjSl2jKwSkH-KG0pPpFf">
    <mxGraphModel dx="1548" dy="895" grid="1" gridSize="8" guides="0" tooltips="1" connect="1" arrows="0" fold="1" page="1" pageScale="1" pageWidth="2560" pageHeight="1440" background="#ffffff" math="0" shadow="0">
      <root>
        <mxCell id="0" />
        <mxCell id="1" parent="0" />
        <mxCell id="rvmtaYyFq73dS3PlPo8G-1" value="module" style="rounded=0;whiteSpace=wrap;html=1;" parent="1" vertex="1">
          <mxGeometry x="64" y="16" width="192" height="192" as="geometry" />
        </mxCell>
        <mxCell id="l6OGeaEmu5MbRwiX80PM-1" value="&lt;i&gt;slave&lt;/i&gt;" style="rounded=1;whiteSpace=wrap;html=1;verticalAlign=top;fillColor=#E6E6E6;" parent="1" vertex="1">
          <mxGeometry x="32" y="32" width="64" height="160" as="geometry" />
        </mxCell>
        <mxCell id="l6OGeaEmu5MbRwiX80PM-2" value="vld" style="text;html=1;strokeColor=none;fillColor=none;align=right;verticalAlign=middle;whiteSpace=wrap;rounded=0;" parent="1" vertex="1">
          <mxGeometry x="48" y="64" width="48" height="16" as="geometry" />
        </mxCell>
        <mxCell id="l6OGeaEmu5MbRwiX80PM-3" value="data" style="text;html=1;strokeColor=none;fillColor=none;align=right;verticalAlign=middle;whiteSpace=wrap;rounded=0;" parent="1" vertex="1">
          <mxGeometry x="48" y="160" width="48" height="16" as="geometry" />
        </mxCell>
        <mxCell id="l6OGeaEmu5MbRwiX80PM-4" value="" style="rounded=1;whiteSpace=wrap;html=1;" parent="1" vertex="1">
          <mxGeometry x="32" y="64" width="16" height="16" as="geometry" />
        </mxCell>
        <mxCell id="l6OGeaEmu5MbRwiX80PM-5" style="edgeStyle=orthogonalEdgeStyle;rounded=0;orthogonalLoop=1;jettySize=auto;html=1;exitX=0;exitY=0.5;exitDx=0;exitDy=0;entryX=1;entryY=0.5;entryDx=0;entryDy=0;" parent="1" source="l6OGeaEmu5MbRwiX80PM-4" target="l6OGeaEmu5MbRwiX80PM-4" edge="1">
          <mxGeometry relative="1" as="geometry" />
        </mxCell>
        <mxCell id="l6OGeaEmu5MbRwiX80PM-6" value="rdy" style="text;html=1;strokeColor=none;fillColor=none;align=right;verticalAlign=middle;whiteSpace=wrap;rounded=0;" parent="1" vertex="1">
          <mxGeometry x="48" y="96" width="48" height="16" as="geometry" />
        </mxCell>
        <mxCell id="l6OGeaEmu5MbRwiX80PM-7" value="" style="rounded=1;whiteSpace=wrap;html=1;" parent="1" vertex="1">
          <mxGeometry x="32" y="96" width="16" height="16" as="geometry" />
        </mxCell>
        <mxCell id="l6OGeaEmu5MbRwiX80PM-8" style="edgeStyle=orthogonalEdgeStyle;rounded=0;orthogonalLoop=1;jettySize=auto;html=1;exitX=1;exitY=0.5;exitDx=0;exitDy=0;entryX=0;entryY=0.5;entryDx=0;entryDy=0;" parent="1" source="l6OGeaEmu5MbRwiX80PM-7" target="l6OGeaEmu5MbRwiX80PM-7" edge="1">
          <mxGeometry relative="1" as="geometry" />
        </mxCell>
        <mxCell id="l6OGeaEmu5MbRwiX80PM-9" value="xfer" style="text;html=1;strokeColor=none;fillColor=none;align=right;verticalAlign=middle;whiteSpace=wrap;rounded=0;" parent="1" vertex="1">
          <mxGeometry x="48" y="128" width="48" height="16" as="geometry" />
        </mxCell>
        <mxCell id="l6OGeaEmu5MbRwiX80PM-10" value="" style="rounded=1;whiteSpace=wrap;html=1;" parent="1" vertex="1">
          <mxGeometry x="32" y="160" width="16" height="16" as="geometry" />
        </mxCell>
        <mxCell id="l6OGeaEmu5MbRwiX80PM-11" style="edgeStyle=orthogonalEdgeStyle;rounded=0;orthogonalLoop=1;jettySize=auto;html=1;exitX=0;exitY=0.5;exitDx=0;exitDy=0;entryX=1;entryY=0.5;entryDx=0;entryDy=0;" parent="1" source="l6OGeaEmu5MbRwiX80PM-10" target="l6OGeaEmu5MbRwiX80PM-10" edge="1">
          <mxGeometry relative="1" as="geometry" />
        </mxCell>
        <mxCell id="rvmtaYyFq73dS3PlPo8G-2" value="&lt;i&gt;master&lt;/i&gt;" style="rounded=1;whiteSpace=wrap;html=1;verticalAlign=top;fillColor=#E6E6E6;" parent="1" vertex="1">
          <mxGeometry x="224" y="32" width="64" height="160" as="geometry" />
        </mxCell>
        <mxCell id="rvmtaYyFq73dS3PlPo8G-3" value="vld" style="text;html=1;strokeColor=none;fillColor=none;align=left;verticalAlign=middle;whiteSpace=wrap;rounded=0;" parent="1" vertex="1">
          <mxGeometry x="224" y="64" width="48" height="16" as="geometry" />
        </mxCell>
        <mxCell id="rvmtaYyFq73dS3PlPo8G-4" value="data" style="text;html=1;strokeColor=none;fillColor=none;align=left;verticalAlign=middle;whiteSpace=wrap;rounded=0;" parent="1" vertex="1">
          <mxGeometry x="224" y="160" width="48" height="16" as="geometry" />
        </mxCell>
        <mxCell id="rvmtaYyFq73dS3PlPo8G-5" value="" style="rounded=1;whiteSpace=wrap;html=1;" parent="1" vertex="1">
          <mxGeometry x="272" y="64" width="16" height="16" as="geometry" />
        </mxCell>
        <mxCell id="rvmtaYyFq73dS3PlPo8G-6" style="edgeStyle=orthogonalEdgeStyle;rounded=0;orthogonalLoop=1;jettySize=auto;html=1;exitX=0;exitY=0.5;exitDx=0;exitDy=0;entryX=1;entryY=0.5;entryDx=0;entryDy=0;" parent="1" source="rvmtaYyFq73dS3PlPo8G-5" target="rvmtaYyFq73dS3PlPo8G-5" edge="1">
          <mxGeometry relative="1" as="geometry" />
        </mxCell>
        <mxCell id="rvmtaYyFq73dS3PlPo8G-7" value="rdy" style="text;html=1;strokeColor=none;fillColor=none;align=left;verticalAlign=middle;whiteSpace=wrap;rounded=0;" parent="1" vertex="1">
          <mxGeometry x="224" y="96" width="48" height="16" as="geometry" />
        </mxCell>
        <mxCell id="rvmtaYyFq73dS3PlPo8G-8" value="" style="rounded=1;whiteSpace=wrap;html=1;" parent="1" vertex="1">
          <mxGeometry x="272" y="96" width="16" height="16" as="geometry" />
        </mxCell>
        <mxCell id="rvmtaYyFq73dS3PlPo8G-9" style="edgeStyle=orthogonalEdgeStyle;rounded=0;orthogonalLoop=1;jettySize=auto;html=1;exitX=1;exitY=0.5;exitDx=0;exitDy=0;entryX=0;entryY=0.5;entryDx=0;entryDy=0;" parent="1" source="rvmtaYyFq73dS3PlPo8G-8" target="rvmtaYyFq73dS3PlPo8G-8" edge="1">
          <mxGeometry relative="1" as="geometry" />
        </mxCell>
        <mxCell id="rvmtaYyFq73dS3PlPo8G-10" value="xfer" style="text;html=1;strokeColor=none;fillColor=none;align=left;verticalAlign=middle;whiteSpace=wrap;rounded=0;" parent="1" vertex="1">
          <mxGeometry x="224" y="128" width="48" height="16" as="geometry" />
        </mxCell>
        <mxCell id="rvmtaYyFq73dS3PlPo8G-11" value="" style="rounded=1;whiteSpace=wrap;html=1;" parent="1" vertex="1">
          <mxGeometry x="272" y="160" width="16" height="16" as="geometry" />
        </mxCell>
        <mxCell id="rvmtaYyFq73dS3PlPo8G-12" style="edgeStyle=orthogonalEdgeStyle;rounded=0;orthogonalLoop=1;jettySize=auto;html=1;exitX=0;exitY=0.5;exitDx=0;exitDy=0;entryX=1;entryY=0.5;entryDx=0;entryDy=0;" parent="1" source="rvmtaYyFq73dS3PlPo8G-11" target="rvmtaYyFq73dS3PlPo8G-11" edge="1">
          <mxGeometry relative="1" as="geometry" />
        </mxCell>
      </root>
    </mxGraphModel>
  </diagram>
  <diagram id="OaeOqI1ccuVGqUkcB_gN" name="wf_no">
    <mxGraphModel dx="516" dy="298" grid="1" gridSize="8" guides="0" tooltips="1" connect="1" arrows="0" fold="1" page="1" pageScale="1" pageWidth="2560" pageHeight="1440" math="0" shadow="0">
      <root>
        <mxCell id="0" />
        <mxCell id="1" parent="0" />
        <mxCell id="Mw26sCbDMhGlROiXqJF--1" value="" style="endArrow=none;html=1;rounded=0;fontSize=12;startSize=3;endSize=3;strokeColor=#CCCCCC;" edge="1" parent="1">
          <mxGeometry width="50" height="50" relative="1" as="geometry">
            <mxPoint x="88" y="184" as="sourcePoint" />
            <mxPoint x="88" y="8" as="targetPoint" />
          </mxGeometry>
        </mxCell>
        <mxCell id="Mw26sCbDMhGlROiXqJF--2" value="" style="endArrow=none;html=1;rounded=0;fontSize=12;startSize=3;endSize=3;strokeColor=#CCCCCC;" edge="1" parent="1">
          <mxGeometry width="50" height="50" relative="1" as="geometry">
            <mxPoint x="120" y="184" as="sourcePoint" />
            <mxPoint x="120" y="8" as="targetPoint" />
          </mxGeometry>
        </mxCell>
        <mxCell id="Mw26sCbDMhGlROiXqJF--3" value="" style="endArrow=none;html=1;rounded=0;fontSize=12;startSize=3;endSize=3;strokeColor=#CCCCCC;" edge="1" parent="1">
          <mxGeometry width="50" height="50" relative="1" as="geometry">
            <mxPoint x="152" y="184" as="sourcePoint" />
            <mxPoint x="152" y="8" as="targetPoint" />
          </mxGeometry>
        </mxCell>
        <mxCell id="Mw26sCbDMhGlROiXqJF--4" value="" style="endArrow=none;html=1;rounded=0;fontSize=12;startSize=3;endSize=3;strokeColor=#CCCCCC;" edge="1" parent="1">
          <mxGeometry width="50" height="50" relative="1" as="geometry">
            <mxPoint x="184" y="184" as="sourcePoint" />
            <mxPoint x="184" y="8" as="targetPoint" />
          </mxGeometry>
        </mxCell>
        <mxCell id="Mw26sCbDMhGlROiXqJF--5" value="" style="endArrow=none;html=1;rounded=0;fontSize=12;startSize=3;endSize=3;strokeColor=#CCCCCC;" edge="1" parent="1">
          <mxGeometry width="50" height="50" relative="1" as="geometry">
            <mxPoint x="216" y="184" as="sourcePoint" />
            <mxPoint x="216" y="8" as="targetPoint" />
          </mxGeometry>
        </mxCell>
        <mxCell id="Mw26sCbDMhGlROiXqJF--6" value="" style="endArrow=none;html=1;rounded=0;fontSize=12;startSize=3;endSize=3;strokeColor=#CCCCCC;" edge="1" parent="1">
          <mxGeometry width="50" height="50" relative="1" as="geometry">
            <mxPoint x="248" y="184" as="sourcePoint" />
            <mxPoint x="248" y="8" as="targetPoint" />
          </mxGeometry>
        </mxCell>
        <mxCell id="Mw26sCbDMhGlROiXqJF--7" value="" style="endArrow=none;html=1;rounded=0;fontSize=12;startSize=3;endSize=3;strokeColor=#CCCCCC;" edge="1" parent="1">
          <mxGeometry width="50" height="50" relative="1" as="geometry">
            <mxPoint x="280" y="184" as="sourcePoint" />
            <mxPoint x="280" y="8" as="targetPoint" />
          </mxGeometry>
        </mxCell>
        <mxCell id="Mw26sCbDMhGlROiXqJF--8" value="x" style="rounded=0;whiteSpace=wrap;html=1;fontSize=8;strokeColor=#000000;strokeWidth=1;fillColor=#F19C99;" vertex="1" parent="1">
          <mxGeometry x="72" y="56" width="224" height="16" as="geometry" />
        </mxCell>
        <mxCell id="Mw26sCbDMhGlROiXqJF--9" value="D0" style="rounded=0;whiteSpace=wrap;html=1;fontSize=8;strokeColor=#000000;strokeWidth=1;fillColor=#FFFFFF;" vertex="1" parent="1">
          <mxGeometry x="88" y="152" width="32" height="16" as="geometry" />
        </mxCell>
        <mxCell id="Mw26sCbDMhGlROiXqJF--10" value="D1" style="rounded=0;whiteSpace=wrap;html=1;fontSize=8;strokeColor=#000000;strokeWidth=1;fillColor=#FFFFFF;" vertex="1" parent="1">
          <mxGeometry x="120" y="152" width="32" height="16" as="geometry" />
        </mxCell>
        <mxCell id="Mw26sCbDMhGlROiXqJF--11" value="D2" style="rounded=0;whiteSpace=wrap;html=1;fontSize=8;strokeColor=#000000;strokeWidth=1;fillColor=#FFFFFF;" vertex="1" parent="1">
          <mxGeometry x="152" y="152" width="32" height="16" as="geometry" />
        </mxCell>
        <mxCell id="Mw26sCbDMhGlROiXqJF--12" value="D3" style="rounded=0;whiteSpace=wrap;html=1;fontSize=8;strokeColor=#000000;strokeWidth=1;fillColor=#FFFFFF;" vertex="1" parent="1">
          <mxGeometry x="184" y="152" width="32" height="16" as="geometry" />
        </mxCell>
        <mxCell id="Mw26sCbDMhGlROiXqJF--13" value="clock" style="text;html=1;strokeColor=none;fillColor=none;align=right;verticalAlign=middle;whiteSpace=wrap;rounded=0;fontSize=8;" vertex="1" parent="1">
          <mxGeometry x="24" y="24" width="32" height="16" as="geometry" />
        </mxCell>
        <mxCell id="Mw26sCbDMhGlROiXqJF--14" value="vld" style="text;html=1;strokeColor=none;fillColor=none;align=right;verticalAlign=middle;whiteSpace=wrap;rounded=0;fontSize=8;" vertex="1" parent="1">
          <mxGeometry x="24" y="56" width="32" height="16" as="geometry" />
        </mxCell>
        <mxCell id="Mw26sCbDMhGlROiXqJF--15" value="data" style="text;html=1;strokeColor=none;fillColor=none;align=right;verticalAlign=middle;whiteSpace=wrap;rounded=0;fontSize=8;" vertex="1" parent="1">
          <mxGeometry x="24" y="152" width="32" height="16" as="geometry" />
        </mxCell>
        <mxCell id="Mw26sCbDMhGlROiXqJF--16" value="" style="endArrow=none;html=1;rounded=0;fontSize=8;startSize=3;endSize=3;strokeColor=#000000;" edge="1" parent="1">
          <mxGeometry width="50" height="50" relative="1" as="geometry">
            <mxPoint x="72" y="40" as="sourcePoint" />
            <mxPoint x="296" y="24" as="targetPoint" />
            <Array as="points">
              <mxPoint x="88" y="40" />
              <mxPoint x="88" y="24" />
              <mxPoint x="104" y="24" />
              <mxPoint x="104" y="40" />
              <mxPoint x="120" y="40" />
              <mxPoint x="120" y="24" />
              <mxPoint x="136" y="24" />
              <mxPoint x="136" y="40" />
              <mxPoint x="152" y="40" />
              <mxPoint x="152" y="24" />
              <mxPoint x="168" y="24" />
              <mxPoint x="168" y="40" />
              <mxPoint x="184" y="40" />
              <mxPoint x="184" y="24" />
              <mxPoint x="200" y="24" />
              <mxPoint x="200" y="40" />
              <mxPoint x="216" y="40" />
              <mxPoint x="216" y="24" />
              <mxPoint x="232" y="24" />
              <mxPoint x="232" y="40" />
              <mxPoint x="248" y="40" />
              <mxPoint x="248" y="24" />
              <mxPoint x="264" y="24" />
              <mxPoint x="264" y="40" />
              <mxPoint x="280" y="40" />
              <mxPoint x="280" y="24" />
            </Array>
          </mxGeometry>
        </mxCell>
        <mxCell id="Mw26sCbDMhGlROiXqJF--17" value="D4" style="rounded=0;whiteSpace=wrap;html=1;fontSize=8;strokeColor=#000000;strokeWidth=1;fillColor=#FFFFFF;" vertex="1" parent="1">
          <mxGeometry x="216" y="152" width="32" height="16" as="geometry" />
        </mxCell>
        <mxCell id="Mw26sCbDMhGlROiXqJF--18" value="" style="rounded=0;whiteSpace=wrap;html=1;fontSize=8;strokeColor=#000000;strokeWidth=1;fillColor=#FFFFFF;" vertex="1" parent="1">
          <mxGeometry x="280" y="152" width="16" height="16" as="geometry" />
        </mxCell>
        <mxCell id="Mw26sCbDMhGlROiXqJF--19" value="x" style="rounded=0;whiteSpace=wrap;html=1;fontSize=8;strokeColor=#000000;strokeWidth=1;fillColor=#F19C99;" vertex="1" parent="1">
          <mxGeometry x="72" y="88" width="224" height="16" as="geometry" />
        </mxCell>
        <mxCell id="Mw26sCbDMhGlROiXqJF--20" value="rdy" style="text;html=1;strokeColor=none;fillColor=none;align=right;verticalAlign=middle;whiteSpace=wrap;rounded=0;fontSize=8;" vertex="1" parent="1">
          <mxGeometry x="24" y="88" width="32" height="16" as="geometry" />
        </mxCell>
        <mxCell id="Mw26sCbDMhGlROiXqJF--21" value="xfer" style="text;html=1;strokeColor=none;fillColor=none;align=right;verticalAlign=middle;whiteSpace=wrap;rounded=0;fontSize=8;" vertex="1" parent="1">
          <mxGeometry x="24" y="120" width="32" height="16" as="geometry" />
        </mxCell>
        <mxCell id="Mw26sCbDMhGlROiXqJF--22" value="" style="endArrow=none;html=1;rounded=0;" edge="1" parent="1">
          <mxGeometry width="50" height="50" relative="1" as="geometry">
            <mxPoint x="72" y="120" as="sourcePoint" />
            <mxPoint x="296" y="120" as="targetPoint" />
          </mxGeometry>
        </mxCell>
        <mxCell id="Mw26sCbDMhGlROiXqJF--23" value="" style="rounded=0;whiteSpace=wrap;html=1;fontSize=8;strokeColor=#000000;strokeWidth=1;fillColor=#FFFFFF;" vertex="1" parent="1">
          <mxGeometry x="72" y="152" width="16" height="16" as="geometry" />
        </mxCell>
        <mxCell id="Mw26sCbDMhGlROiXqJF--24" value="D5" style="rounded=0;whiteSpace=wrap;html=1;fontSize=8;strokeColor=#000000;strokeWidth=1;fillColor=#FFFFFF;" vertex="1" parent="1">
          <mxGeometry x="248" y="152" width="32" height="16" as="geometry" />
        </mxCell>
      </root>
    </mxGraphModel>
  </diagram>
  <diagram id="EOlop1sgJw2WOQxixWV8" name="wf_uni">
    <mxGraphModel dx="737" dy="426" grid="1" gridSize="8" guides="0" tooltips="1" connect="1" arrows="0" fold="1" page="1" pageScale="1" pageWidth="2560" pageHeight="1440" math="0" shadow="0">
      <root>
        <mxCell id="0" />
        <mxCell id="1" parent="0" />
        <mxCell id="nuJCFa-_fX2sghh3ZNUy-1" value="" style="endArrow=none;html=1;rounded=0;fontSize=12;startSize=3;endSize=3;strokeColor=#CCCCCC;" edge="1" parent="1">
          <mxGeometry width="50" height="50" relative="1" as="geometry">
            <mxPoint x="80" y="184" as="sourcePoint" />
            <mxPoint x="80" y="8" as="targetPoint" />
          </mxGeometry>
        </mxCell>
        <mxCell id="nuJCFa-_fX2sghh3ZNUy-2" value="" style="endArrow=none;html=1;rounded=0;fontSize=12;startSize=3;endSize=3;strokeColor=#CCCCCC;" edge="1" parent="1">
          <mxGeometry width="50" height="50" relative="1" as="geometry">
            <mxPoint x="112" y="184" as="sourcePoint" />
            <mxPoint x="112" y="8" as="targetPoint" />
          </mxGeometry>
        </mxCell>
        <mxCell id="nuJCFa-_fX2sghh3ZNUy-3" value="" style="endArrow=none;html=1;rounded=0;fontSize=12;startSize=3;endSize=3;strokeColor=#CCCCCC;" edge="1" parent="1">
          <mxGeometry width="50" height="50" relative="1" as="geometry">
            <mxPoint x="144" y="184" as="sourcePoint" />
            <mxPoint x="144" y="8" as="targetPoint" />
          </mxGeometry>
        </mxCell>
        <mxCell id="nuJCFa-_fX2sghh3ZNUy-4" value="" style="endArrow=none;html=1;rounded=0;fontSize=12;startSize=3;endSize=3;strokeColor=#CCCCCC;" edge="1" parent="1">
          <mxGeometry width="50" height="50" relative="1" as="geometry">
            <mxPoint x="176" y="184" as="sourcePoint" />
            <mxPoint x="176" y="8" as="targetPoint" />
          </mxGeometry>
        </mxCell>
        <mxCell id="nuJCFa-_fX2sghh3ZNUy-5" value="" style="endArrow=none;html=1;rounded=0;fontSize=12;startSize=3;endSize=3;strokeColor=#CCCCCC;" edge="1" parent="1">
          <mxGeometry width="50" height="50" relative="1" as="geometry">
            <mxPoint x="208" y="184" as="sourcePoint" />
            <mxPoint x="208" y="8" as="targetPoint" />
          </mxGeometry>
        </mxCell>
        <mxCell id="nuJCFa-_fX2sghh3ZNUy-6" value="" style="endArrow=none;html=1;rounded=0;fontSize=12;startSize=3;endSize=3;strokeColor=#CCCCCC;" edge="1" parent="1">
          <mxGeometry width="50" height="50" relative="1" as="geometry">
            <mxPoint x="240" y="184" as="sourcePoint" />
            <mxPoint x="240" y="8" as="targetPoint" />
          </mxGeometry>
        </mxCell>
        <mxCell id="nuJCFa-_fX2sghh3ZNUy-7" value="" style="endArrow=none;html=1;rounded=0;fontSize=12;startSize=3;endSize=3;strokeColor=#CCCCCC;" edge="1" parent="1">
          <mxGeometry width="50" height="50" relative="1" as="geometry">
            <mxPoint x="272" y="184" as="sourcePoint" />
            <mxPoint x="272" y="8" as="targetPoint" />
          </mxGeometry>
        </mxCell>
        <mxCell id="nuJCFa-_fX2sghh3ZNUy-8" value="x" style="rounded=0;whiteSpace=wrap;html=1;fontSize=8;strokeColor=#000000;strokeWidth=1;fillColor=#F19C99;" vertex="1" parent="1">
          <mxGeometry x="64" y="56" width="16" height="16" as="geometry" />
        </mxCell>
        <mxCell id="nuJCFa-_fX2sghh3ZNUy-9" value="D1" style="rounded=0;whiteSpace=wrap;html=1;fontSize=8;strokeColor=#000000;strokeWidth=1;fillColor=#FFFFFF;" vertex="1" parent="1">
          <mxGeometry x="112" y="152" width="32" height="16" as="geometry" />
        </mxCell>
        <mxCell id="nuJCFa-_fX2sghh3ZNUy-10" value="D2" style="rounded=0;whiteSpace=wrap;html=1;fontSize=8;strokeColor=#000000;strokeWidth=1;fillColor=#FFFFFF;" vertex="1" parent="1">
          <mxGeometry x="176" y="152" width="32" height="16" as="geometry" />
        </mxCell>
        <mxCell id="nuJCFa-_fX2sghh3ZNUy-11" value="clock" style="text;html=1;strokeColor=none;fillColor=none;align=right;verticalAlign=middle;whiteSpace=wrap;rounded=0;fontSize=8;" vertex="1" parent="1">
          <mxGeometry x="16" y="24" width="32" height="16" as="geometry" />
        </mxCell>
        <mxCell id="nuJCFa-_fX2sghh3ZNUy-12" value="vld" style="text;html=1;strokeColor=none;fillColor=none;align=right;verticalAlign=middle;whiteSpace=wrap;rounded=0;fontSize=8;" vertex="1" parent="1">
          <mxGeometry x="16" y="56" width="32" height="16" as="geometry" />
        </mxCell>
        <mxCell id="nuJCFa-_fX2sghh3ZNUy-13" value="data" style="text;html=1;strokeColor=none;fillColor=none;align=right;verticalAlign=middle;whiteSpace=wrap;rounded=0;fontSize=8;" vertex="1" parent="1">
          <mxGeometry x="16" y="152" width="32" height="16" as="geometry" />
        </mxCell>
        <mxCell id="nuJCFa-_fX2sghh3ZNUy-14" value="" style="endArrow=none;html=1;rounded=0;fontSize=8;startSize=3;endSize=3;strokeColor=#000000;" edge="1" parent="1">
          <mxGeometry width="50" height="50" relative="1" as="geometry">
            <mxPoint x="64" y="40" as="sourcePoint" />
            <mxPoint x="288" y="24" as="targetPoint" />
            <Array as="points">
              <mxPoint x="80" y="40" />
              <mxPoint x="80" y="24" />
              <mxPoint x="96" y="24" />
              <mxPoint x="96" y="40" />
              <mxPoint x="112" y="40" />
              <mxPoint x="112" y="24" />
              <mxPoint x="128" y="24" />
              <mxPoint x="128" y="40" />
              <mxPoint x="144" y="40" />
              <mxPoint x="144" y="24" />
              <mxPoint x="160" y="24" />
              <mxPoint x="160" y="40" />
              <mxPoint x="176" y="40" />
              <mxPoint x="176" y="24" />
              <mxPoint x="192" y="24" />
              <mxPoint x="192" y="40" />
              <mxPoint x="208" y="40" />
              <mxPoint x="208" y="24" />
              <mxPoint x="224" y="24" />
              <mxPoint x="224" y="40" />
              <mxPoint x="240" y="40" />
              <mxPoint x="240" y="24" />
              <mxPoint x="256" y="24" />
              <mxPoint x="256" y="40" />
              <mxPoint x="272" y="40" />
              <mxPoint x="272" y="24" />
            </Array>
          </mxGeometry>
        </mxCell>
        <mxCell id="nuJCFa-_fX2sghh3ZNUy-15" value="D3" style="rounded=0;whiteSpace=wrap;html=1;fontSize=8;strokeColor=#000000;strokeWidth=1;fillColor=#FFFFFF;" vertex="1" parent="1">
          <mxGeometry x="208" y="152" width="32" height="16" as="geometry" />
        </mxCell>
        <mxCell id="nuJCFa-_fX2sghh3ZNUy-16" value="x" style="rounded=0;whiteSpace=wrap;html=1;fontSize=8;strokeColor=#000000;strokeWidth=1;fillColor=#F19C99;" vertex="1" parent="1">
          <mxGeometry x="64" y="88" width="224" height="16" as="geometry" />
        </mxCell>
        <mxCell id="nuJCFa-_fX2sghh3ZNUy-17" value="rdy" style="text;html=1;strokeColor=none;fillColor=none;align=right;verticalAlign=middle;whiteSpace=wrap;rounded=0;fontSize=8;" vertex="1" parent="1">
          <mxGeometry x="16" y="88" width="32" height="16" as="geometry" />
        </mxCell>
        <mxCell id="nuJCFa-_fX2sghh3ZNUy-18" value="xfer" style="text;html=1;strokeColor=none;fillColor=none;align=right;verticalAlign=middle;whiteSpace=wrap;rounded=0;fontSize=8;" vertex="1" parent="1">
          <mxGeometry x="16" y="120" width="32" height="16" as="geometry" />
        </mxCell>
        <mxCell id="nuJCFa-_fX2sghh3ZNUy-19" value="" style="endArrow=none;html=1;rounded=0;" edge="1" parent="1">
          <mxGeometry width="50" height="50" relative="1" as="geometry">
            <mxPoint x="80" y="72" as="sourcePoint" />
            <mxPoint x="288" y="72" as="targetPoint" />
            <Array as="points">
              <mxPoint x="112" y="72" />
              <mxPoint x="112" y="56" />
              <mxPoint x="144" y="56" />
              <mxPoint x="144" y="72" />
              <mxPoint x="176" y="72" />
              <mxPoint x="176" y="56" />
              <mxPoint x="240" y="56" />
              <mxPoint x="240" y="72" />
            </Array>
          </mxGeometry>
        </mxCell>
        <mxCell id="nuJCFa-_fX2sghh3ZNUy-20" value="x" style="rounded=0;whiteSpace=wrap;html=1;fontSize=8;strokeColor=#000000;strokeWidth=1;fillColor=#F19C99;" vertex="1" parent="1">
          <mxGeometry x="64" y="152" width="48" height="16" as="geometry" />
        </mxCell>
        <mxCell id="nuJCFa-_fX2sghh3ZNUy-21" value="" style="endArrow=none;html=1;rounded=0;" edge="1" parent="1">
          <mxGeometry width="50" height="50" relative="1" as="geometry">
            <mxPoint x="80" y="136" as="sourcePoint" />
            <mxPoint x="288" y="136" as="targetPoint" />
            <Array as="points">
              <mxPoint x="112" y="136" />
              <mxPoint x="112" y="120" />
              <mxPoint x="144" y="120" />
              <mxPoint x="144" y="136" />
              <mxPoint x="176" y="136" />
              <mxPoint x="176" y="120" />
              <mxPoint x="240" y="120" />
              <mxPoint x="240" y="136" />
            </Array>
          </mxGeometry>
        </mxCell>
        <mxCell id="nuJCFa-_fX2sghh3ZNUy-22" value="x" style="rounded=0;whiteSpace=wrap;html=1;fontSize=8;strokeColor=#000000;strokeWidth=1;fillColor=#F19C99;" vertex="1" parent="1">
          <mxGeometry x="144" y="152" width="32" height="16" as="geometry" />
        </mxCell>
        <mxCell id="nuJCFa-_fX2sghh3ZNUy-23" value="x" style="rounded=0;whiteSpace=wrap;html=1;fontSize=8;strokeColor=#000000;strokeWidth=1;fillColor=#F19C99;" vertex="1" parent="1">
          <mxGeometry x="240" y="152" width="48" height="16" as="geometry" />
        </mxCell>
        <mxCell id="nuJCFa-_fX2sghh3ZNUy-24" value="x" style="rounded=0;whiteSpace=wrap;html=1;fontSize=8;strokeColor=#000000;strokeWidth=1;fillColor=#F19C99;" vertex="1" parent="1">
          <mxGeometry x="64" y="120" width="16" height="16" as="geometry" />
        </mxCell>
      </root>
    </mxGraphModel>
  </diagram>
  <diagram id="z5n592Ff3x7mRsVfAP29" name="wf_bi">
    <mxGraphModel dx="499" dy="289" grid="1" gridSize="8" guides="0" tooltips="1" connect="1" arrows="0" fold="1" page="1" pageScale="1" pageWidth="2560" pageHeight="1440" background="#ffffff" math="0" shadow="0">
      <root>
        <mxCell id="0" />
        <mxCell id="1" parent="0" />
        <mxCell id="PS18jV6U4Z3O7HoKawhN-1" value="" style="endArrow=none;html=1;rounded=0;fontSize=12;startSize=3;endSize=3;strokeColor=#CCCCCC;" parent="1" edge="1">
          <mxGeometry width="50" height="50" relative="1" as="geometry">
            <mxPoint x="72" y="184" as="sourcePoint" />
            <mxPoint x="72" y="8" as="targetPoint" />
          </mxGeometry>
        </mxCell>
        <mxCell id="PS18jV6U4Z3O7HoKawhN-2" value="" style="endArrow=none;html=1;rounded=0;fontSize=12;startSize=3;endSize=3;strokeColor=#CCCCCC;" parent="1" edge="1">
          <mxGeometry width="50" height="50" relative="1" as="geometry">
            <mxPoint x="104" y="184" as="sourcePoint" />
            <mxPoint x="104" y="8" as="targetPoint" />
          </mxGeometry>
        </mxCell>
        <mxCell id="PS18jV6U4Z3O7HoKawhN-3" value="" style="endArrow=none;html=1;rounded=0;fontSize=12;startSize=3;endSize=3;strokeColor=#CCCCCC;" parent="1" edge="1">
          <mxGeometry width="50" height="50" relative="1" as="geometry">
            <mxPoint x="136" y="184" as="sourcePoint" />
            <mxPoint x="136" y="8" as="targetPoint" />
          </mxGeometry>
        </mxCell>
        <mxCell id="PS18jV6U4Z3O7HoKawhN-4" value="" style="endArrow=none;html=1;rounded=0;fontSize=12;startSize=3;endSize=3;strokeColor=#CCCCCC;" parent="1" edge="1">
          <mxGeometry width="50" height="50" relative="1" as="geometry">
            <mxPoint x="168" y="184" as="sourcePoint" />
            <mxPoint x="168" y="8" as="targetPoint" />
          </mxGeometry>
        </mxCell>
        <mxCell id="PS18jV6U4Z3O7HoKawhN-5" value="" style="endArrow=none;html=1;rounded=0;fontSize=12;startSize=3;endSize=3;strokeColor=#CCCCCC;" parent="1" edge="1">
          <mxGeometry width="50" height="50" relative="1" as="geometry">
            <mxPoint x="200" y="184" as="sourcePoint" />
            <mxPoint x="200" y="8" as="targetPoint" />
          </mxGeometry>
        </mxCell>
        <mxCell id="PS18jV6U4Z3O7HoKawhN-6" value="" style="endArrow=none;html=1;rounded=0;fontSize=12;startSize=3;endSize=3;strokeColor=#CCCCCC;" parent="1" edge="1">
          <mxGeometry width="50" height="50" relative="1" as="geometry">
            <mxPoint x="232" y="184" as="sourcePoint" />
            <mxPoint x="232" y="8" as="targetPoint" />
          </mxGeometry>
        </mxCell>
        <mxCell id="PS18jV6U4Z3O7HoKawhN-7" value="" style="endArrow=none;html=1;rounded=0;fontSize=12;startSize=3;endSize=3;strokeColor=#CCCCCC;" parent="1" edge="1">
          <mxGeometry width="50" height="50" relative="1" as="geometry">
            <mxPoint x="264" y="184" as="sourcePoint" />
            <mxPoint x="264" y="8" as="targetPoint" />
          </mxGeometry>
        </mxCell>
        <mxCell id="PS18jV6U4Z3O7HoKawhN-10" value="x" style="rounded=0;whiteSpace=wrap;html=1;fontSize=8;strokeColor=#000000;strokeWidth=1;fillColor=#F19C99;" parent="1" vertex="1">
          <mxGeometry x="56" y="56" width="16" height="16" as="geometry" />
        </mxCell>
        <mxCell id="PS18jV6U4Z3O7HoKawhN-16" value="clock" style="text;html=1;strokeColor=none;fillColor=none;align=right;verticalAlign=middle;whiteSpace=wrap;rounded=0;fontSize=8;" parent="1" vertex="1">
          <mxGeometry x="8" y="24" width="32" height="16" as="geometry" />
        </mxCell>
        <mxCell id="PS18jV6U4Z3O7HoKawhN-18" value="vld" style="text;html=1;strokeColor=none;fillColor=none;align=right;verticalAlign=middle;whiteSpace=wrap;rounded=0;fontSize=8;" parent="1" vertex="1">
          <mxGeometry x="8" y="56" width="32" height="16" as="geometry" />
        </mxCell>
        <mxCell id="PS18jV6U4Z3O7HoKawhN-19" value="data" style="text;html=1;strokeColor=none;fillColor=none;align=right;verticalAlign=middle;whiteSpace=wrap;rounded=0;fontSize=8;" parent="1" vertex="1">
          <mxGeometry x="8" y="152" width="32" height="16" as="geometry" />
        </mxCell>
        <mxCell id="PS18jV6U4Z3O7HoKawhN-20" value="" style="endArrow=none;html=1;rounded=0;fontSize=8;startSize=3;endSize=3;strokeColor=#000000;" parent="1" edge="1">
          <mxGeometry width="50" height="50" relative="1" as="geometry">
            <mxPoint x="56" y="40" as="sourcePoint" />
            <mxPoint x="280" y="24" as="targetPoint" />
            <Array as="points">
              <mxPoint x="72" y="40" />
              <mxPoint x="72" y="24" />
              <mxPoint x="88" y="24" />
              <mxPoint x="88" y="40" />
              <mxPoint x="104" y="40" />
              <mxPoint x="104" y="24" />
              <mxPoint x="120" y="24" />
              <mxPoint x="120" y="40" />
              <mxPoint x="136" y="40" />
              <mxPoint x="136" y="24" />
              <mxPoint x="152" y="24" />
              <mxPoint x="152" y="40" />
              <mxPoint x="168" y="40" />
              <mxPoint x="168" y="24" />
              <mxPoint x="184" y="24" />
              <mxPoint x="184" y="40" />
              <mxPoint x="200" y="40" />
              <mxPoint x="200" y="24" />
              <mxPoint x="216" y="24" />
              <mxPoint x="216" y="40" />
              <mxPoint x="232" y="40" />
              <mxPoint x="232" y="24" />
              <mxPoint x="248" y="24" />
              <mxPoint x="248" y="40" />
              <mxPoint x="264" y="40" />
              <mxPoint x="264" y="24" />
            </Array>
          </mxGeometry>
        </mxCell>
        <mxCell id="PS18jV6U4Z3O7HoKawhN-21" value="D0" style="rounded=0;whiteSpace=wrap;html=1;fontSize=8;strokeColor=#000000;strokeWidth=1;fillColor=#FFFFFF;" parent="1" vertex="1">
          <mxGeometry x="200" y="152" width="32" height="16" as="geometry" />
        </mxCell>
        <mxCell id="PS18jV6U4Z3O7HoKawhN-24" value="x" style="rounded=0;whiteSpace=wrap;html=1;fontSize=8;strokeColor=#000000;strokeWidth=1;fillColor=#F19C99;" parent="1" vertex="1">
          <mxGeometry x="56" y="88" width="16" height="16" as="geometry" />
        </mxCell>
        <mxCell id="PS18jV6U4Z3O7HoKawhN-25" value="rdy" style="text;html=1;strokeColor=none;fillColor=none;align=right;verticalAlign=middle;whiteSpace=wrap;rounded=0;fontSize=8;" parent="1" vertex="1">
          <mxGeometry x="8" y="88" width="32" height="16" as="geometry" />
        </mxCell>
        <mxCell id="PS18jV6U4Z3O7HoKawhN-28" value="xfer" style="text;html=1;strokeColor=none;fillColor=none;align=right;verticalAlign=middle;whiteSpace=wrap;rounded=0;fontSize=8;" parent="1" vertex="1">
          <mxGeometry x="8" y="120" width="32" height="16" as="geometry" />
        </mxCell>
        <mxCell id="Q0VcwAhAzImNjjfF6pVO-1" value="" style="endArrow=none;html=1;rounded=0;" parent="1" edge="1">
          <mxGeometry width="50" height="50" relative="1" as="geometry">
            <mxPoint x="72" y="72" as="sourcePoint" />
            <mxPoint x="280" y="72" as="targetPoint" />
            <Array as="points">
              <mxPoint x="104" y="72" />
              <mxPoint x="104" y="56" />
              <mxPoint x="136" y="56" />
              <mxPoint x="136" y="72" />
              <mxPoint x="168" y="72" />
              <mxPoint x="168" y="56" />
              <mxPoint x="232" y="56" />
              <mxPoint x="232" y="72" />
            </Array>
          </mxGeometry>
        </mxCell>
        <mxCell id="Q0VcwAhAzImNjjfF6pVO-2" value="x" style="rounded=0;whiteSpace=wrap;html=1;fontSize=8;strokeColor=#000000;strokeWidth=1;fillColor=#F19C99;" parent="1" vertex="1">
          <mxGeometry x="56" y="152" width="144" height="16" as="geometry" />
        </mxCell>
        <mxCell id="Q0VcwAhAzImNjjfF6pVO-3" value="" style="endArrow=none;html=1;rounded=0;" parent="1" edge="1">
          <mxGeometry width="50" height="50" relative="1" as="geometry">
            <mxPoint x="72" y="136" as="sourcePoint" />
            <mxPoint x="280" y="136" as="targetPoint" />
            <Array as="points">
              <mxPoint x="104" y="136" />
              <mxPoint x="136" y="136" />
              <mxPoint x="200" y="136" />
              <mxPoint x="200" y="120" />
              <mxPoint x="232" y="120" />
              <mxPoint x="232" y="136" />
            </Array>
          </mxGeometry>
        </mxCell>
        <mxCell id="Q0VcwAhAzImNjjfF6pVO-5" value="x" style="rounded=0;whiteSpace=wrap;html=1;fontSize=8;strokeColor=#000000;strokeWidth=1;fillColor=#F19C99;" parent="1" vertex="1">
          <mxGeometry x="232" y="152" width="48" height="16" as="geometry" />
        </mxCell>
        <mxCell id="Q0VcwAhAzImNjjfF6pVO-6" value="x" style="rounded=0;whiteSpace=wrap;html=1;fontSize=8;strokeColor=#000000;strokeWidth=1;fillColor=#F19C99;" parent="1" vertex="1">
          <mxGeometry x="56" y="120" width="16" height="16" as="geometry" />
        </mxCell>
        <mxCell id="Dkux8--GptGQ_LkvpTDu-1" value="" style="endArrow=none;html=1;rounded=0;" parent="1" edge="1">
          <mxGeometry width="50" height="50" relative="1" as="geometry">
            <mxPoint x="72" y="104" as="sourcePoint" />
            <mxPoint x="280" y="104" as="targetPoint" />
            <Array as="points">
              <mxPoint x="104" y="104" />
              <mxPoint x="104" y="88" />
              <mxPoint x="136" y="88" />
              <mxPoint x="136" y="104" />
              <mxPoint x="200" y="104" />
              <mxPoint x="200" y="88" />
              <mxPoint x="232" y="88" />
              <mxPoint x="232" y="104" />
            </Array>
          </mxGeometry>
        </mxCell>
      </root>
    </mxGraphModel>
  </diagram>
</mxfile>
